<svg width="108" height="28" viewBox="0 0 108 28" fill="none" xmlns="http://www.w3.org/2000/svg">
<path d="M19.8041 0H21.6144C28.5266 0 32.7416 2.34248 34.2594 7.02745C34.7531 8.58301 35 10.3856 35 12.4353V15.4549H19.8041V0ZM0 14.3294C0 12.3163 0.265151 10.4497 0.795455 8.72941C1.32576 6.99085 2.14864 5.4719 3.26411 4.17255C5.6779 1.39085 9.13401 0 13.6324 0H15.7445V28H14.3182C9.71003 28 6.1442 26.7373 3.62069 24.2118C1.2069 21.7961 0 18.502 0 14.3294ZM19.8041 20.8353H33.5188V21.6039C33.5188 23.3059 32.9062 24.7425 31.681 25.9137C30.1816 27.3046 28.0512 28 25.29 28H19.8041V20.8353Z" fill="white"/>
<path d="M58.232 23L57.848 21.104C57.528 21.664 57.008 22.16 56.288 22.592C55.568 23.024 54.688 23.24 53.648 23.24C52.416 23.24 51.36 22.952 50.48 22.376C49.616 21.784 48.952 20.992 48.488 20C48.04 19.008 47.816 17.888 47.816 16.64C47.816 15.424 48.048 14.32 48.512 13.328C48.992 12.32 49.672 11.52 50.552 10.928C51.432 10.32 52.472 10.016 53.672 10.016C54.664 10.016 55.512 10.192 56.216 10.544C56.936 10.896 57.488 11.352 57.872 11.912V4.592H61.76V23H58.232ZM51.824 16.568C51.824 17.288 51.92 17.984 52.112 18.656C52.32 19.328 52.648 19.88 53.096 20.312C53.544 20.744 54.128 20.96 54.848 20.96C55.568 20.96 56.152 20.744 56.6 20.312C57.048 19.88 57.376 19.328 57.584 18.656C57.792 17.984 57.896 17.288 57.896 16.568C57.896 15.832 57.792 15.136 57.584 14.48C57.376 13.808 57.048 13.264 56.6 12.848C56.152 12.416 55.568 12.2 54.848 12.2C54.128 12.2 53.544 12.416 53.096 12.848C52.648 13.264 52.32 13.808 52.112 14.48C51.92 15.136 51.824 15.832 51.824 16.568ZM78.3331 16.64C78.3331 18.016 78.0211 19.2 77.3971 20.192C76.7891 21.168 75.9491 21.92 74.8771 22.448C73.8211 22.976 72.6291 23.24 71.3011 23.24C69.9731 23.24 68.7731 22.976 67.7011 22.448C66.6451 21.92 65.8051 21.168 65.1811 20.192C64.5731 19.2 64.2691 18.016 64.2691 16.64C64.2691 15.264 64.5731 14.08 65.1811 13.088C65.8051 12.096 66.6451 11.336 67.7011 10.808C68.7731 10.28 69.9731 10.016 71.3011 10.016C72.6291 10.016 73.8211 10.28 74.8771 10.808C75.9491 11.336 76.7891 12.096 77.3971 13.088C78.0211 14.08 78.3331 15.264 78.3331 16.64ZM68.2771 16.64C68.2771 17.44 68.3651 18.2 68.5411 18.92C68.7171 19.64 69.0211 20.224 69.4531 20.672C69.9011 21.12 70.5171 21.344 71.3011 21.344C72.0851 21.344 72.6931 21.12 73.1251 20.672C73.5731 20.224 73.8851 19.64 74.0611 18.92C74.2371 18.2 74.3251 17.44 74.3251 16.64C74.3251 15.824 74.2371 15.056 74.0611 14.336C73.8851 13.616 73.5731 13.032 73.1251 12.584C72.6931 12.136 72.0851 11.912 71.3011 11.912C70.5171 11.912 69.9011 12.136 69.4531 12.584C69.0211 13.032 68.7171 13.616 68.5411 14.336C68.3651 15.056 68.2771 15.824 68.2771 16.64ZM92.8603 18.584C92.8603 19.624 92.5723 20.488 91.9963 21.176C91.4363 21.864 90.6843 22.384 89.7403 22.736C88.7963 23.072 87.7563 23.24 86.6203 23.24C85.2763 23.24 84.1003 22.976 83.0923 22.448C82.1003 21.92 81.3323 21.168 80.7883 20.192C80.2443 19.216 79.9723 18.056 79.9723 16.712C79.9723 15.368 80.2443 14.192 80.7883 13.184C81.3483 12.176 82.1243 11.4 83.1163 10.856C84.1243 10.296 85.3003 10.016 86.6443 10.016C87.7323 10.016 88.7563 10.184 89.7163 10.52C90.6763 10.856 91.4523 11.368 92.0443 12.056C92.6363 12.728 92.9323 13.568 92.9323 14.576V14.84H88.9723C88.9723 14.328 88.8843 13.856 88.7083 13.424C88.5323 12.976 88.2683 12.616 87.9163 12.344C87.5803 12.072 87.1563 11.936 86.6443 11.936C86.0843 11.936 85.6283 12.08 85.2763 12.368C84.9243 12.64 84.6523 13.016 84.4603 13.496C84.2843 13.96 84.1563 14.472 84.0763 15.032C84.0123 15.592 83.9803 16.152 83.9803 16.712C83.9803 17.448 84.0443 18.16 84.1723 18.848C84.3003 19.536 84.5563 20.104 84.9403 20.552C85.3243 20.984 85.8843 21.2 86.6203 21.2C87.4363 21.2 88.0203 20.928 88.3723 20.384C88.7243 19.824 88.9003 19.136 88.9003 18.32H92.8603V18.584ZM100.742 21.368C101.126 21.368 101.462 21.312 101.75 21.2C102.038 21.088 102.262 20.912 102.422 20.672C102.582 20.432 102.662 20.12 102.662 19.736C102.662 19.4 102.566 19.128 102.374 18.92C102.182 18.696 101.934 18.512 101.63 18.368C101.326 18.224 100.99 18.112 100.622 18.032C100.254 17.936 99.8938 17.848 99.5418 17.768C98.9018 17.624 98.3018 17.448 97.7418 17.24C97.1978 17.032 96.7178 16.776 96.3018 16.472C95.9018 16.168 95.5818 15.808 95.3418 15.392C95.1178 14.96 95.0058 14.464 95.0058 13.904C95.0058 12.992 95.2698 12.248 95.7978 11.672C96.3418 11.096 97.0378 10.672 97.8858 10.4C98.7338 10.128 99.6218 9.992 100.55 9.992C101.606 9.992 102.574 10.12 103.454 10.376C104.334 10.632 105.038 11.048 105.566 11.624C106.094 12.184 106.358 12.952 106.358 13.928V14.168H102.59C102.59 13.688 102.518 13.28 102.374 12.944C102.23 12.592 101.998 12.328 101.678 12.152C101.374 11.96 100.982 11.864 100.502 11.864C100.182 11.864 99.8858 11.92 99.6138 12.032C99.3578 12.144 99.1498 12.312 98.9898 12.536C98.8458 12.76 98.7738 13.04 98.7738 13.376C98.7738 13.696 98.8778 13.976 99.0858 14.216C99.2938 14.44 99.6058 14.632 100.022 14.792C100.438 14.952 100.95 15.104 101.558 15.248C102.038 15.36 102.566 15.496 103.142 15.656C103.718 15.8 104.262 16.016 104.774 16.304C105.302 16.576 105.726 16.944 106.046 17.408C106.382 17.856 106.55 18.44 106.55 19.16C106.55 20.168 106.27 20.968 105.71 21.56C105.166 22.152 104.446 22.584 103.55 22.856C102.67 23.112 101.726 23.24 100.718 23.24C99.6618 23.24 98.6858 23.12 97.7898 22.88C96.8938 22.624 96.1738 22.2 95.6298 21.608C95.0858 21 94.8138 20.176 94.8138 19.136V18.776H98.7018C98.7018 19.256 98.7658 19.696 98.8938 20.096C99.0218 20.48 99.2298 20.792 99.5178 21.032C99.8218 21.256 100.23 21.368 100.742 21.368Z" fill="white"/>
</svg>
