<svg width="782" height="205" viewBox="0 0 782 205" fill="none" xmlns="http://www.w3.org/2000/svg">
<path d="M144.853 0H158.094C208.652 0 239.482 17.1202 250.583 51.3605C254.194 62.7294 256 75.9039 256 90.884V112.953H144.853V0ZM0 104.727C0 90.0146 1.93939 76.372 5.81818 63.7994C9.69697 51.093 15.7158 39.9916 23.8746 30.4953C41.5298 10.1651 66.8088 0 99.7116 0H115.16V204.639H104.727C71.0219 204.639 44.9404 195.411 26.4828 176.953C8.82759 159.298 0 135.223 0 104.727ZM144.853 152.276H245.166V157.893C245.166 170.332 240.685 180.832 231.724 189.392C220.757 199.557 205.174 204.639 184.978 204.639H144.853V152.276Z" fill="#FF3E57"/>
<path d="M336 115.48C336 96.8133 341.6 82.104 352.8 71.352C364.149 60.4507 376.992 55 391.328 55C400.139 55 407.381 57.1653 413.056 61.496C418.731 65.8267 421.568 71.6507 421.568 78.968C421.568 86.136 419.701 92.184 415.968 97.112C412.384 102.04 407.979 105.848 402.752 108.536C392.149 113.763 382.443 117.048 373.632 118.392L368.256 119.064C369.301 133.101 375.051 140.12 385.504 140.12C389.088 140.12 392.896 139.224 396.928 137.432C400.96 135.64 404.096 133.848 406.336 132.056L409.696 129.368L415.072 136.536C413.877 138.179 411.488 140.344 407.904 143.032C404.32 145.72 400.96 147.96 397.824 149.752C389.163 154.531 379.68 156.92 369.376 156.92C359.072 156.92 350.933 153.261 344.96 145.944C338.987 138.627 336 128.472 336 115.48ZM368.032 108.088C375.648 106.744 381.696 103.533 386.176 98.456C390.656 93.3787 392.896 86.808 392.896 78.744C392.896 70.68 390.507 66.648 385.728 66.648C380.053 66.648 375.648 71.5013 372.512 81.208C369.525 90.7653 368.032 99.7253 368.032 108.088ZM448.093 55C454.663 55 459.517 56.344 462.653 59.032C465.938 61.72 467.581 67.2453 467.581 75.608C467.581 80.088 466.237 89.272 463.549 103.16C460.861 116.899 459.517 125.261 459.517 128.248C459.517 134.221 460.711 137.208 463.101 137.208C468.775 137.208 474.973 133.027 481.693 124.664C488.562 116.152 492.146 109.059 492.445 103.384L477.213 86.36C477.81 79.9387 479.378 74.1147 481.917 68.888C484.455 63.6613 486.845 60.0027 489.085 57.912L492.221 55C498.642 55 503.495 56.7173 506.781 60.152C510.066 63.5867 511.709 67.6187 511.709 72.248C511.709 84.0453 508.797 96.5147 502.973 109.656C497.149 122.797 489.383 133.997 479.677 143.256C469.97 152.365 460.114 156.92 450.109 156.92C443.837 156.92 438.983 154.979 435.549 151.096C432.263 147.213 430.621 142.136 430.621 135.864C430.621 129.443 431.069 120.856 431.965 110.104C433.01 99.352 433.533 88.6747 433.533 78.072C433.533 75.6827 432.637 72.8453 430.845 69.56C429.202 66.2747 427.485 63.6613 425.693 61.72L426.365 59.032C434.429 56.344 441.671 55 448.093 55ZM513.625 115.48C513.625 96.8133 519.225 82.104 530.425 71.352C541.774 60.4507 554.617 55 568.953 55C577.764 55 585.006 57.1653 590.681 61.496C596.356 65.8267 599.193 71.6507 599.193 78.968C599.193 86.136 597.326 92.184 593.593 97.112C590.009 102.04 585.604 105.848 580.377 108.536C569.774 113.763 560.068 117.048 551.257 118.392L545.881 119.064C546.926 133.101 552.676 140.12 563.129 140.12C566.713 140.12 570.521 139.224 574.553 137.432C578.585 135.64 581.721 133.848 583.961 132.056L587.321 129.368L592.697 136.536C591.502 138.179 589.113 140.344 585.529 143.032C581.945 145.72 578.585 147.96 575.449 149.752C566.788 154.531 557.305 156.92 547.001 156.92C536.697 156.92 528.558 153.261 522.585 145.944C516.612 138.627 513.625 128.472 513.625 115.48ZM545.657 108.088C553.273 106.744 559.321 103.533 563.801 98.456C568.281 93.3787 570.521 86.808 570.521 78.744C570.521 70.68 568.132 66.648 563.353 66.648C557.678 66.648 553.273 71.5013 550.137 81.208C547.15 90.7653 545.657 99.7253 545.657 108.088ZM608.47 154.904H606.902C606.603 153.709 606.454 151.021 606.454 146.84C606.454 142.509 608.47 131.011 612.502 112.344C616.534 93.6773 618.55 83 618.55 80.312C618.55 75.6827 616.459 70.6053 612.278 65.08L610.262 62.392L610.486 59.48C618.55 57.24 631.467 56.12 649.238 56.12C651.03 60.0027 651.926 65.4533 651.926 72.472C653.568 69.784 657.003 66.2 662.23 61.72C667.456 57.24 672.832 55 678.358 55C686.422 55 690.454 62.0187 690.454 76.056C689.707 76.952 688.662 78.1467 687.318 79.64C686.123 80.984 683.584 82.9253 679.702 85.464C675.968 88.0027 672.31 89.5707 668.726 90.168C668.576 90.168 667.307 88.152 664.918 84.12C662.528 80.088 660.736 78.072 659.542 78.072C655.808 79.416 652.523 81.656 649.686 84.792C642.816 115.704 639.382 135.715 639.382 144.824C639.382 148.109 639.456 150.424 639.606 151.768C634.379 153.859 624 154.904 608.47 154.904ZM703.322 155.128C690.927 155.128 684.73 148.259 684.73 134.52C684.73 131.235 686.223 121.752 689.21 106.072C692.196 90.392 693.69 77.3253 693.69 66.872C693.69 64.632 693.391 62.5413 692.793 60.6C700.858 57.464 711.908 55.896 725.946 55.896C726.692 57.9867 727.066 61.5707 727.066 66.648C727.066 71.7253 725.423 81.88 722.138 97.112C718.852 112.344 717.21 122.275 717.21 126.904C717.21 131.533 718.404 133.848 720.794 133.848C727.364 133.848 733.711 131.533 739.834 126.904C740.282 121.379 743.268 98.904 748.794 59.48C754.02 57.3893 763.428 56.344 777.018 56.344H781.274C779.482 63.3627 776.495 81.1333 772.314 109.656C768.282 138.029 765.37 156.024 763.578 163.64C761.786 171.256 759.322 177.976 756.186 183.8C753.199 189.624 749.466 193.955 744.986 196.792C740.655 199.779 736.25 201.795 731.77 202.84C727.29 203.885 721.466 204.408 714.298 204.408C707.279 204.408 700.559 202.093 694.138 197.464C687.866 192.984 684.73 189.101 684.73 185.816C684.73 183.725 687.343 180.515 692.57 176.184C697.946 171.853 702.426 169.165 706.01 168.12C713.626 175.736 719.226 184.024 722.81 192.984C726.692 192.984 730.127 188.355 733.113 179.096C736.1 169.837 738.116 156.248 739.162 138.328C735.578 141.912 730.127 145.645 722.81 149.528C715.492 153.261 708.996 155.128 703.322 155.128Z" fill="#EDEDED"/>
</svg>
