<svg width="256" height="205" viewBox="0 0 256 205" fill="none" xmlns="http://www.w3.org/2000/svg">
<path d="M144.853 0H158.094C208.652 0 239.482 17.1202 250.583 51.3605C254.194 62.7294 256 75.9039 256 90.884V112.953H144.853V0ZM0 104.727C0 90.0146 1.93939 76.372 5.81818 63.7994C9.69697 51.093 15.7158 39.9916 23.8746 30.4953C41.5298 10.1651 66.8088 0 99.7116 0H115.16V204.639H104.727C71.0219 204.639 44.9404 195.411 26.4828 176.953C8.82759 159.298 0 135.223 0 104.727ZM144.853 152.276H245.166V157.893C245.166 170.332 240.685 180.832 231.724 189.392C220.757 199.557 205.174 204.639 184.978 204.639H144.853V152.276Z" fill="#EDEDED"/>
</svg>
