<svg width="250" height="200" viewBox="0 0 250 200" fill="none" xmlns="http://www.w3.org/2000/svg">
<path d="M141.211 0.78125H154.102C203.32 0.78125 233.333 17.4479 244.141 50.7812C247.656 61.849 249.414 74.6745 249.414 89.2578V110.742H141.211V0.78125ZM0.195312 102.734C0.195312 88.4115 2.08333 75.1302 5.85938 62.8906C9.63542 50.5208 15.4948 39.7135 23.4375 30.4688C40.625 10.6771 65.2344 0.78125 97.2656 0.78125H112.305V200H102.148C69.3359 200 43.9453 191.016 25.9766 173.047C8.78906 155.859 0.195312 132.422 0.195312 102.734ZM141.211 149.023H238.867V154.492C238.867 166.602 234.505 176.823 225.781 185.156C215.104 195.052 199.935 200 180.273 200H141.211V149.023Z" fill="black"/>
</svg>
