<svg width="140" height="111" viewBox="0 0 140 111" fill="none" xmlns="http://www.w3.org/2000/svg">
<path d="M79.1805 0H86.3629C113.786 0 130.509 9.28627 136.531 27.8588C138.489 34.0255 139.469 41.1716 139.469 49.2971V61.2676H79.1805V0ZM0.609924 56.8059C0.609924 48.8255 1.66189 41.4255 3.76581 34.6059C5.86973 27.7137 9.13443 21.6922 13.5599 16.5412C23.1364 5.51372 36.8482 0 54.6952 0H63.0746V111H57.4158C39.1335 111 24.9864 105.994 14.9746 95.9824C5.39816 86.4059 0.609924 73.3471 0.609924 56.8059ZM79.1805 82.5971H133.592V85.6441C133.592 92.3912 131.162 98.0863 126.301 102.729C120.352 108.243 111.9 111 100.945 111H79.1805V82.5971Z" fill="black"/>
</svg>
