<svg width="264" height="256" viewBox="0 0 264 256" fill="none" xmlns="http://www.w3.org/2000/svg">
<g filter="url(#filter0_d_229_313)">
<path d="M148.853 26H162.094C212.652 26 243.482 43.1202 254.583 77.3605C258.194 88.7294 260 101.904 260 116.884V138.953H148.853V26ZM4 130.727C4 116.015 5.93939 102.372 9.81818 89.7994C13.697 77.093 19.7158 65.9916 27.8746 56.4953C45.5298 36.1651 70.8088 26 103.712 26H119.16V230.639H108.727C75.0219 230.639 48.9404 221.411 30.4828 202.953C12.8276 185.298 4 161.223 4 130.727ZM148.853 178.276H249.166V183.893C249.166 196.332 244.685 206.832 235.724 215.392C224.757 225.557 209.174 230.639 188.978 230.639H148.853V178.276Z" fill="#FF3E57"/>
</g>
<defs>
<filter id="filter0_d_229_313" x="0" y="0" width="264" height="264" filterUnits="userSpaceOnUse" color-interpolation-filters="sRGB">
<feFlood flood-opacity="0" result="BackgroundImageFix"/>
<feColorMatrix in="SourceAlpha" type="matrix" values="0 0 0 0 0 0 0 0 0 0 0 0 0 0 0 0 0 0 127 0" result="hardAlpha"/>
<feOffset dy="4"/>
<feGaussianBlur stdDeviation="2"/>
<feComposite in2="hardAlpha" operator="out"/>
<feColorMatrix type="matrix" values="0 0 0 0 0 0 0 0 0 0 0 0 0 0 0 0 0 0 0.25 0"/>
<feBlend mode="normal" in2="BackgroundImageFix" result="effect1_dropShadow_229_313"/>
<feBlend mode="normal" in="SourceGraphic" in2="effect1_dropShadow_229_313" result="shape"/>
</filter>
</defs>
</svg>
